<mxfile host="app.diagrams.net" modified="2023-10-11T15:32:13.209Z" agent="Mozilla/5.0 (Windows NT 10.0; Win64; x64) AppleWebKit/537.36 (KHTML, like Gecko) Chrome/117.0.0.0 Safari/537.36" version="21.6.9" etag="zs0FlkbOlIxsztUdtkA7" type="github">
  <diagram name="PÃ¡gina-1" id="Z_8QZbGZmjloagxHLasW">
    <mxGraphModel>
      <root>
        <mxCell id="0" />
        <mxCell id="1" parent="0" />
      </root>
    </mxGraphModel>
  </diagram>
</mxfile>
